<svg id="effect" height="512" viewBox="0 0 36 36" width="512" xmlns="http://www.w3.org/2000/svg"><path d="m13.411 34.999c6.298-2.859 12.105-1.559 15.14-2.936 3.035-1.378 8.617-6.016 2.28-19.978s-15.841-12.12-19.18-10.605c-15.632 7.095-9.395 38.582 1.76 33.519z" fill="#efefef"/><path d="m29.042 15.995-3.942-4.77c-.38-.46-.945-.726-1.542-.726h-15.058c-1.105 0-2 .895-2 2v10c0 .552.448 1 1 1h1.888 18.112 1c.552 0 1-.448 1-1v-5.231c0-.464-.162-.914-.458-1.273z" fill="#f3f3f1"/><circle cx="11.5" cy="23.5" fill="#2fdf84" r="2"/><circle cx="25.5" cy="23.5" fill="#2fdf84" r="2"/><path d="m12.5 25.23c-.29.17-.64.27-1 .27-1.1 0-2-.9-2-2s.9-2 2-2c.36 0 .71.1 1 .27-.6.35-1 .99-1 1.73s.4 1.38 1 1.73z" fill="#00b871"/><path d="m26.5 25.23c-.29.17-.64.27-1 .27-1.1 0-2-.9-2-2s.9-2 2-2c.36 0 .71.1 1 .27-.6.35-1 .99-1 1.73s.4 1.38 1 1.73z" fill="#00b871"/><path d="m9.5 23.5h-2c-.55 0-1-.45-1-1v-10c0-1.1.9-2 2-2h2c-1.1 0-2 .9-2 2v10c0 .55.45 1 1 1z" fill="#d5dbe1"/><path d="m13.5 22.75h10v1.5h-10z"/><path d="m28.5 24.25h-1v-1.5h1c.138 0 .25-.112.25-.25v-5.23c0-.29-.102-.573-.286-.796l-3.942-4.769c-.238-.289-.589-.454-.963-.454h-15.059c-.689 0-1.25.561-1.25 1.25v10c0 .138.112.25.25.25h1.888v1.5h-1.888c-.965 0-1.75-.785-1.75-1.75v-10c0-1.517 1.233-2.75 2.75-2.75h15.059c.823 0 1.596.364 2.119.999l3.942 4.769c.406.492.63 1.114.63 1.752v5.23c0 .964-.785 1.749-1.75 1.749z"/><path d="m11.5 26.25c-1.517 0-2.75-1.233-2.75-2.75s1.233-2.75 2.75-2.75 2.75 1.233 2.75 2.75-1.233 2.75-2.75 2.75zm0-4c-.689 0-1.25.561-1.25 1.25s.561 1.25 1.25 1.25 1.25-.561 1.25-1.25-.561-1.25-1.25-1.25z"/><path d="m25.5 26.25c-1.517 0-2.75-1.233-2.75-2.75s1.233-2.75 2.75-2.75 2.75 1.233 2.75 2.75-1.233 2.75-2.75 2.75zm0-4c-.689 0-1.25.561-1.25 1.25s.561 1.25 1.25 1.25 1.25-.561 1.25-1.25-.561-1.25-1.25-1.25z"/><path d="m13.75 13.5h1.5v6h-1.5z"/><path d="m11.5 15.75h6v1.5h-6z"/><path d="m27.25 18.25h-2.75c-1.517 0-2.75-1.233-2.75-2.75v-2.75h1.5v2.75c0 .689.561 1.25 1.25 1.25h2.75z"/><path d="m31 6c-.827 0-1.5-.673-1.5-1.5s.673-1.5 1.5-1.5 1.5.673 1.5 1.5-.673 1.5-1.5 1.5zm0-2c-.275 0-.5.224-.5.5s.225.5.5.5.5-.224.5-.5-.225-.5-.5-.5z" fill="#a4afc1"/></svg>