<svg id="effect" height="512" viewBox="0 0 36 36" width="512" xmlns="http://www.w3.org/2000/svg"><path d="m27.417 3.914c-6.915.129-11.732-3.365-15.064-3.302s-10.296 2.109-10.009 17.44 9.744 17.404 13.41 17.336c17.163-.321 23.911-31.703 11.663-31.474z" fill="#efefef"/><circle cx="24" cy="24" fill="#2fdf84" r="5.5"/><path d="m21.5 14c0 .23-.02.48-.05.73-.02.13-.04.26-.06.39-.02.12-.05.26-.08.39-.86 3.71-4.43 8.48-6.24 10.72-.17.2-.31.37-.44.53-.07.08-.13.15-.18.22-.29.33-.45.52-.45.52s-.16-.19-.45-.52c-.05-.07-.11-.14-.18-.22-.13-.15-.28-.33-.44-.53-1.81-2.24-5.38-7.01-6.24-10.72-.03-.13-.06-.26-.08-.39s-.04-.26-.06-.39c-.03-.25-.05-.49-.05-.73 0-4.14 3.36-7.5 7.5-7.5s7.5 3.36 7.5 7.5z" fill="#f3f3f1"/><circle cx="14" cy="14" fill="#2fdf84" r="3.5"/><path d="m25 29.41c-.32.06-.66.09-1 .09-3.04 0-5.5-2.46-5.5-5.5s2.46-5.5 5.5-5.5c.34 0 .68.03 1 .09-2.56.47-4.5 2.71-4.5 5.41s1.94 4.94 4.5 5.41z" fill="#00b871"/><path d="m15 17.35c-.32.1-.65.15-1 .15-1.93 0-3.5-1.57-3.5-3.5s1.57-3.5 3.5-3.5c.35 0 .68.05 1 .15-1.44.43-2.5 1.77-2.5 3.35s1.06 2.92 2.5 3.35z" fill="#00b871"/><path d="m14.93 26.23c.03.03.05.06.07.09-.14.16-.26.31-.37.44-.07.08-.13.15-.18.22-.29.33-.45.52-.45.52s-.16-.19-.45-.52c-.05-.07-.11-.14-.18-.22-.13-.15-.28-.33-.44-.53-1.81-2.24-5.38-7.01-6.24-10.72-.03-.13-.06-.26-.08-.39s-.04-.26-.06-.39c-.03-.25-.05-.49-.05-.73 0-4.14 3.36-7.5 7.5-7.5.34 0 .67.02 1 .07-3.67.49-6.5 3.63-6.5 7.43 0 .24.02.48.05.73.02.13.04.26.06.39s.05.26.08.39c.86 3.71 4.43 8.48 6.24 10.72z" fill="#d5dbe1"/><path d="m14 28.25c-.215 0-.42-.092-.563-.254-.313-.355-7.687-8.772-7.687-13.996 0-4.549 3.701-8.25 8.25-8.25s8.25 3.701 8.25 8.25c0 .664-.114 1.399-.339 2.186l-1.442-.412c.187-.653.281-1.25.281-1.774 0-3.722-3.028-6.75-6.75-6.75s-6.75 3.028-6.75 6.75c0 3.89 5.038 10.282 6.751 12.342.276-.33.637-.772 1.05-1.296l1.179.928c-.962 1.223-1.639 1.991-1.667 2.023-.143.161-.348.253-.563.253z"/><path d="m14 18.25c-2.343 0-4.25-1.907-4.25-4.25s1.907-4.25 4.25-4.25 4.25 1.907 4.25 4.25-1.907 4.25-4.25 4.25zm0-7c-1.517 0-2.75 1.233-2.75 2.75s1.233 2.75 2.75 2.75 2.75-1.233 2.75-2.75-1.233-2.75-2.75-2.75z"/><path d="m24 30.25c-3.446 0-6.25-2.804-6.25-6.25s2.804-6.25 6.25-6.25 6.25 2.804 6.25 6.25-2.804 6.25-6.25 6.25zm0-11c-2.619 0-4.75 2.131-4.75 4.75s2.131 4.75 4.75 4.75 4.75-2.131 4.75-4.75-2.131-4.75-4.75-4.75z"/><path d="m22.5 23.25h3v1.5h-3z"/><path d="m21.75 21.5h1.5v5h-1.5z"/><path d="m24.75 21.5h1.5v5h-1.5z"/><path d="m28.5 13c-.827 0-1.5-.673-1.5-1.5s.673-1.5 1.5-1.5 1.5.673 1.5 1.5-.673 1.5-1.5 1.5zm0-2c-.276 0-.5.224-.5.5s.224.5.5.5.5-.224.5-.5-.224-.5-.5-.5z" fill="#a4afc1"/></svg>