<svg id="effect" height="512" viewBox="0 0 36 36" width="512" xmlns="http://www.w3.org/2000/svg"><path d="m1.063 15.31c3.655 5.872 3.123 11.798 4.885 14.628s7.088 7.76 20.105-.343 9.951-17.286 8.014-20.399c-9.072-14.574-39.477-4.285-33.004 6.114z" fill="#efefef"/><path d="m25.5 18.5h-8c-1.105 0-2-.895-2-2v-8c0-1.105.895-2 2-2h8c1.105 0 2 .895 2 2v8c0 1.105-.895 2-2 2z" fill="#f3f3f1"/><path d="m11.5 29.5h-1c-.552 0-1-.448-1-1v-21c0-.552.448-1 1-1h1c.552 0 1 .448 1 1v21c0 .552-.448 1-1 1z" fill="#2fdf84"/><path d="m12 29.36c-.15.09-.32.14-.5.14h-1c-.55 0-1-.45-1-1v-21c0-.55.45-1 1-1h1c.18 0 .35.05.5.14-.3.17-.5.49-.5.86v21c0 .37.2.69.5.86z" fill="#00b871"/><path d="m19.5 18.5h-2c-1.1 0-2-.9-2-2v-8c0-1.1.9-2 2-2h2c-1.1 0-2 .9-2 2v8c0 1.1.9 2 2 2z" fill="#d5dbe1"/><path d="m25.5 19.25h-8c-1.517 0-2.75-1.233-2.75-2.75v-8c0-1.517 1.233-2.75 2.75-2.75h8c1.517 0 2.75 1.233 2.75 2.75v8c0 1.517-1.233 2.75-2.75 2.75zm-8-12c-.689 0-1.25.561-1.25 1.25v8c0 .689.561 1.25 1.25 1.25h8c.689 0 1.25-.561 1.25-1.25v-8c0-.689-.561-1.25-1.25-1.25z"/><path d="m20.75 9.5h1.5v6h-1.5z"/><path d="m18.5 11.75h6v1.5h-6z"/><path d="m11.5 30.25h-1c-.965 0-1.75-.785-1.75-1.75v-21c0-.965.785-1.75 1.75-1.75h1c.965 0 1.75.785 1.75 1.75v21c0 .965-.785 1.75-1.75 1.75zm-1-23c-.138 0-.25.112-.25.25v21c0 .138.112.25.25.25h1c.138 0 .25-.112.25-.25v-21c0-.138-.112-.25-.25-.25z"/><path d="m12.5 8.75h3v1.5h-3z"/><path d="m12.5 14.75h3v1.5h-3z"/><path d="m4.833 6c-.827 0-1.5-.673-1.5-1.5s.673-1.5 1.5-1.5 1.5.673 1.5 1.5-.673 1.5-1.5 1.5zm0-2c-.275 0-.5.224-.5.5s.225.5.5.5.5-.224.5-.5-.225-.5-.5-.5z" fill="#a4afc1"/></svg>